<svg width="24" height="28" viewBox="0 0 19 23" fill="none" xmlns="http://www.w3.org/2000/svg"><path fill-rule="evenodd" clip-rule="evenodd" d="M14.069 3.089C12.405 2.69 10.742 1.895 9.494.702 8.247 1.895 6.584 2.691 4.92 3.09c.416 3.58 1.664 5.966 4.574 7.955 2.911-1.989 4.575-4.376 4.575-7.955Z" fill="#FFB627"/><path fill-rule="evenodd" clip-rule="evenodd" d="M12.405 17.899.762 4.773v6.364l9.148 9.944 2.495-3.182ZM13.653 16.706l4.99-5.569V5.171l-7.9 8.75 2.91 2.785ZM14.069 18.695v3.58l4.574-5.171v-3.58l-4.574 5.17ZM5.336 18.695.762 13.524v3.58l4.574 5.17v-3.58Z" fill="#822eac"/></svg>