<svg aria-hidden="true" style="width:0;height:0;position:absolute;overflow:hidden" xmlns="http://www.w3.org/2000/svg"><defs><symbol id="icon-currency" viewBox="0 0 18 32"><path d="M9.487 13.676c-3.93-1.021-5.193-2.077-5.193-3.722 0-1.887 1.748-3.203 4.674-3.203 3.081 0 4.224 1.472 4.328 3.635h3.826c-.121-2.978-1.939-5.713-5.557-6.596V-.001H6.372v3.739C3.014 4.465.313 6.646.313 9.987c0 3.999 3.307 5.99 8.136 7.15 4.328 1.039 5.193 2.562 5.193 4.172 0 1.194-.848 3.099-4.674 3.099-3.566 0-4.968-1.593-5.159-3.635H0c.208 3.791 3.047 5.921 6.371 6.63v3.757h5.193v-3.722c3.376-.641 6.059-2.597 6.059-6.146 0-4.916-4.207-6.596-8.136-7.617z"/></symbol><symbol id="icon-statistics" viewBox="0 0 32 32"><path d="M3.556 0h24.889a3.556 3.556 0 0 1 3.556 3.556v24.889a3.556 3.556 0 0 1-3.556 3.556H3.556A3.556 3.556 0 0 1 0 28.445V3.556A3.556 3.556 0 0 1 3.556 0zm22.626 13.63c1.244 0 2.263-1.067 2.263-2.37s-1.018-2.37-2.263-2.37c-1.244 0-2.263 1.067-2.263 2.37 0 .213.023.415.079.604l-4.016 4.219c-.181-.059-.385-.083-.588-.083s-.407.024-.588.083l-2.885-3.022c.057-.19.079-.403.079-.616 0-1.304-1.018-2.37-2.263-2.37s-2.263 1.067-2.263 2.37c0 .213.023.427.079.616l-5.159 5.393a1.848 1.848 0 0 0-.577-.083c-1.244 0-2.263 1.067-2.263 2.37s1.018 2.37 2.263 2.37 2.263-1.067 2.263-2.37a2.12 2.12 0 0 0-.079-.604l5.147-5.404c.181.059.385.083.588.083s.407-.024.588-.083l2.885 3.022c-.057.19-.079.403-.079.616 0 1.304 1.018 2.37 2.263 2.37s2.263-1.067 2.263-2.37c0-.213-.023-.427-.079-.616l4.027-4.207c.181.059.373.083.577.083z"/></symbol><symbol id="icon-home" viewBox="0 0 32 32"><path d="M3.556 0A3.556 3.556 0 0 0 0 3.556v24.889a3.556 3.556 0 0 0 3.556 3.556h24.889a3.556 3.556 0 0 0 3.556-3.556V3.556A3.556 3.556 0 0 0 28.445 0H3.556zm10.311 17.987v6.902H8.534v-9.203h-3.2L16.001 5.333l10.667 10.353h-3.2v9.203h-5.333v-6.902h-4.267z"/></symbol><symbol id="icon-exit" viewBox="0 0 32 32"><path fill="currentcolor" d="M20.051 23.237h2.499v4.997a3.752 3.752 0 0 1-3.748 3.748H3.748A3.752 3.752 0 0 1 0 28.234V3.748A3.752 3.752 0 0 1 3.748 0h15.054a3.752 3.752 0 0 1 3.748 3.748v4.997h-2.499V3.748a1.25 1.25 0 0 0-1.249-1.249H3.748a1.25 1.25 0 0 0-1.249 1.249v24.486a1.25 1.25 0 0 0 1.249 1.249h15.054a1.25 1.25 0 0 0 1.249-1.249v-4.997zm6.06-13.135-1.767 1.767 2.873 2.874H11.056v2.499h16.161l-2.873 2.873 1.767 1.767L32 15.993l-5.889-5.89z"/></symbol><symbol id="icon-logo" viewBox="0 0 32 32"><path fill="#ffc727" style="fill:var(--color2,#ffc727)" d="M22.25 4.181c-2.153-.538-4.307-1.615-5.922-3.23-1.615 1.615-3.769 2.692-5.922 3.23.538 4.845 2.154 8.076 5.922 10.768 3.769-2.692 5.922-5.922 5.922-10.768z"/><path fill="#fbfbfb" style="fill:var(--color3,#fbfbfb)" d="M20.097 24.227 5.022 6.461v8.614l11.844 13.459 3.23-4.307zM21.712 22.612l6.461-7.537V6.999L17.944 18.843l3.769 3.769zM22.25 25.304v4.845l5.922-6.999v-4.846l-5.922 6.999zM10.944 25.304l-5.922-6.999v4.846l5.922 6.999v-4.845z"/></symbol><symbol id="icon-edit" viewBox="0 0 32 32"><path fill="currentcolor" stroke-linejoin="round" stroke-linecap="round" stroke-width="2.743" d="m24 13.334-5.333-5.333M3.333 28.667l4.513-.502c.551-.061.827-.092 1.085-.175.229-.074.446-.178.647-.311.226-.149.422-.345.814-.737L28 9.334a3.77 3.77 0 1 0-5.333-5.333L5.059 21.609c-.392.392-.588.588-.737.814a2.68 2.68 0 0 0-.311.647c-.083.258-.114.533-.175 1.085l-.501 4.513z"/></symbol><symbol id="icon-password" viewBox="0 0 32 32"><path fill="currentcolor" d="M24 10.667h-1.333V8c0-3.68-2.987-6.667-6.667-6.667S9.333 4.32 9.333 8v2.667H8a2.675 2.675 0 0 0-2.667 2.667v13.333c0 1.467 1.2 2.667 2.667 2.667h16c1.467 0 2.667-1.2 2.667-2.667V13.334c0-1.467-1.2-2.667-2.667-2.667zm-8 12c-1.467 0-2.667-1.2-2.667-2.667s1.2-2.667 2.667-2.667c1.467 0 2.667 1.2 2.667 2.667s-1.2 2.667-2.667 2.667zm4.133-12h-8.267V8c0-2.28 1.853-4.133 4.133-4.133S20.132 5.72 20.132 8v2.667z"/></symbol><symbol id="icon-email" viewBox="0 0 32 32"><path fill="currentcolor" d="M26.667 5.333H5.334A2.663 2.663 0 0 0 2.681 8l-.013 16c0 1.467 1.2 2.667 2.667 2.667h21.333c1.467 0 2.667-1.2 2.667-2.667V8c0-1.467-1.2-2.667-2.667-2.667zm0 5.334L16 17.334 5.333 10.667V8L16 14.667 26.667 8v2.667z"/></symbol><symbol id="icon-username" viewBox="0 0 32 32"><path fill="currentcolor" d="M16 20c-4.227 0-7.986 2.041-10.379 5.208-.515.682-.773 1.022-.764 1.483.006.356.23.805.51 1.025.362.284.865.284 1.869.284h17.527c1.005 0 1.507 0 1.869-.284.28-.22.503-.669.51-1.025.008-.461-.249-.801-.764-1.483C23.985 22.041 20.226 20 15.999 20zM16 16a6 6 0 1 0 0-12 6 6 0 0 0 0 12z"/></symbol><symbol id="icon-close" viewBox="0 0 32 32"><path fill="currentcolor" stroke-width="1.778" d="m1.778 1.778 28.444 28.444M1.778 30.222 30.222 1.778"/></symbol><symbol id="icon-date" viewBox="0 0 32 32"><path fill="currentcolor" d="M12 14.667H9.333v2.667H12v-2.667zm5.333 0h-2.667v2.667h2.667v-2.667zm5.334 0H20v2.667h2.667v-2.667zm2.666-9.334H24V2.666h-2.667v2.667H10.666V2.666H7.999v2.667H6.666c-1.48 0-2.653 1.2-2.653 2.667L4 26.667a2.666 2.666 0 0 0 2.667 2.667h18.667c1.467 0 2.667-1.2 2.667-2.667V8c0-1.467-1.2-2.667-2.667-2.667zm0 21.334H6.666V12h18.667v14.667z"/></symbol></defs></svg>