<svg aria-hidden="true" style="position: absolute; width: 0; height: 0; overflow: hidden;" version="1.1"
  xmlns="http://www.w3.org/2000/svg" xmlns:xlink="http://www.w3.org/1999/xlink">
  <defs>
    <symbol id="icon-currency" viewBox="0 0 18 32">
      <path
        d="M9.487 13.676c-3.93-1.021-5.193-2.077-5.193-3.722 0-1.887 1.748-3.203 4.674-3.203 3.081 0 4.224 1.472 4.328 3.635h3.826c-0.121-2.978-1.939-5.713-5.557-6.596v-3.791h-5.193v3.739c-3.358 0.727-6.059 2.908-6.059 6.249 0 3.999 3.307 5.99 8.136 7.15 4.328 1.039 5.193 2.562 5.193 4.172 0 1.194-0.848 3.099-4.674 3.099-3.566 0-4.968-1.593-5.159-3.635h-3.809c0.208 3.791 3.047 5.921 6.371 6.63v3.757h5.193v-3.722c3.376-0.641 6.059-2.597 6.059-6.146 0-4.916-4.207-6.596-8.136-7.617z">
      </path>
    </symbol>
    <symbol id="icon-statistics" viewBox="0 0 32 32">
      <path
        d="M3.556 0h24.889c1.964 0 3.556 1.592 3.556 3.556v24.889c0 1.964-1.592 3.556-3.556 3.556h-24.889c-1.964 0-3.556-1.592-3.556-3.556v-24.889c0-1.964 1.592-3.556 3.556-3.556zM26.182 13.63c1.244 0 2.263-1.067 2.263-2.37s-1.018-2.37-2.263-2.37c-1.244 0-2.263 1.067-2.263 2.37 0 0.213 0.023 0.415 0.079 0.604l-4.016 4.219c-0.181-0.059-0.385-0.083-0.588-0.083s-0.407 0.024-0.588 0.083l-2.885-3.022c0.057-0.19 0.079-0.403 0.079-0.616 0-1.304-1.018-2.37-2.263-2.37s-2.263 1.067-2.263 2.37c0 0.213 0.023 0.427 0.079 0.616l-5.159 5.393c-0.181-0.059-0.373-0.083-0.577-0.083-1.244 0-2.263 1.067-2.263 2.37s1.018 2.37 2.263 2.37 2.263-1.067 2.263-2.37c0-0.213-0.023-0.415-0.079-0.604l5.147-5.404c0.181 0.059 0.385 0.083 0.588 0.083s0.407-0.024 0.588-0.083l2.885 3.022c-0.057 0.19-0.079 0.403-0.079 0.616 0 1.304 1.018 2.37 2.263 2.37s2.263-1.067 2.263-2.37c0-0.213-0.023-0.427-0.079-0.616l4.027-4.207c0.181 0.059 0.373 0.083 0.577 0.083z">
      </path>
    </symbol>
    <symbol id="icon-home" viewBox="0 0 32 32">
      <path
        d="M3.556 0c-1.964 0-3.556 1.592-3.556 3.556v24.889c0 1.964 1.592 3.556 3.556 3.556h24.889c1.964 0 3.556-1.592 3.556-3.556v-24.889c0-1.964-1.592-3.556-3.556-3.556h-24.889zM13.867 17.987v6.902h-5.333v-9.203h-3.2l10.667-10.353 10.667 10.353h-3.2v9.203h-5.333v-6.902h-4.267z">
      </path>
    </symbol>
    <symbol id="icon-exit" viewBox="0 0 32 32">
      <path fill="currentcolor"
        d="M20.051 23.237h2.499v4.997c0 2.067-1.681 3.748-3.748 3.748h-15.054c-2.066 0-3.748-1.681-3.748-3.748v-24.486c0-2.066 1.681-3.748 3.748-3.748h15.054c2.067 0 3.748 1.681 3.748 3.748v4.997h-2.499v-4.997c0-0.689-0.56-1.249-1.249-1.249h-15.054c-0.689 0-1.249 0.561-1.249 1.249v24.486c0 0.689 0.561 1.249 1.249 1.249h15.054c0.689 0 1.249-0.561 1.249-1.249v-4.997zM26.111 10.102l-1.767 1.767 2.873 2.874h-16.161v2.499h16.161l-2.873 2.873 1.767 1.767 5.889-5.889-5.889-5.89z">
      </path>
    </symbol>
    <symbol id="icon-logo" viewBox="0 0 32 32">
      <path fill="#ffc727" style="fill: var(--color2, #ffc727)"
        d="M22.25 4.181c-2.153-0.538-4.307-1.615-5.922-3.23-1.615 1.615-3.769 2.692-5.922 3.23 0.538 4.845 2.154 8.076 5.922 10.768 3.769-2.692 5.922-5.922 5.922-10.768z">
      </path>
      <path fill="#fbfbfb" style="fill: var(--color3, #fbfbfb)"
        d="M20.097 24.227l-15.075-17.766v8.614l11.844 13.459 3.23-4.307z"></path>
      <path fill="#fbfbfb" style="fill: var(--color3, #fbfbfb)"
        d="M21.712 22.612l6.461-7.537v-8.076l-10.229 11.844 3.769 3.769z"></path>
      <path fill="#fbfbfb" style="fill: var(--color3, #fbfbfb)"
        d="M22.25 25.304v4.845l5.922-6.999v-4.846l-5.922 6.999z"></path>
      <path fill="#fbfbfb" style="fill: var(--color3, #fbfbfb)"
        d="M10.944 25.304l-5.922-6.999v4.846l5.922 6.999v-4.845z"></path>
    </symbol>
    <symbol id="icon-edit" viewBox="0 0 32 32">
      <path fill="currentcolor" stroke-linejoin="round" stroke-linecap="round" stroke-miterlimit="4"
        stroke-width="2.7429"
        d="M24 13.334l-5.333-5.333M3.333 28.667l4.513-0.502c0.551-0.061 0.827-0.092 1.085-0.175 0.229-0.074 0.446-0.178 0.647-0.311 0.226-0.149 0.422-0.345 0.814-0.737l17.608-17.608c1.473-1.473 1.473-3.861 0-5.333s-3.861-1.473-5.333 0l-17.608 17.608c-0.392 0.392-0.588 0.588-0.737 0.814-0.132 0.201-0.237 0.418-0.311 0.647-0.083 0.258-0.114 0.533-0.175 1.085l-0.501 4.513z">
      </path>
    </symbol>

    <symbol id="icon-password" viewBox="0 0 32 32">
      <path fill="currentcolor"
        d="M24 10.667h-1.333v-2.667c0-3.68-2.987-6.667-6.667-6.667s-6.667 2.987-6.667 6.667v2.667h-1.333c-1.467 0-2.667 1.2-2.667 2.667v13.333c0 1.467 1.2 2.667 2.667 2.667h16c1.467 0 2.667-1.2 2.667-2.667v-13.333c0-1.467-1.2-2.667-2.667-2.667zM16 22.667c-1.467 0-2.667-1.2-2.667-2.667s1.2-2.667 2.667-2.667c1.467 0 2.667 1.2 2.667 2.667s-1.2 2.667-2.667 2.667zM20.133 10.667h-8.267v-2.667c0-2.28 1.853-4.133 4.133-4.133s4.133 1.853 4.133 4.133v2.667z">
      </path>
    </symbol>

    <symbol id="icon-email" viewBox="0 0 32 32">
      <path fill="currentcolor"
        d="M26.667 5.333h-21.333c-1.467 0-2.653 1.2-2.653 2.667l-0.013 16c0 1.467 1.2 2.667 2.667 2.667h21.333c1.467 0 2.667-1.2 2.667-2.667v-16c0-1.467-1.2-2.667-2.667-2.667zM26.667 10.667l-10.667 6.667-10.667-6.667v-2.667l10.667 6.667 10.667-6.667v2.667z">
      </path>
    </symbol>

    <symbol id="icon-username" viewBox="0 0 32 32">
      <path fill="currentcolor"
        d="M16 20c-4.227 0-7.986 2.041-10.379 5.208-0.515 0.682-0.773 1.022-0.764 1.483 0.006 0.356 0.23 0.805 0.51 1.025 0.362 0.284 0.865 0.284 1.869 0.284h17.527c1.005 0 1.507 0 1.869-0.284 0.28-0.22 0.503-0.669 0.51-1.025 0.008-0.461-0.249-0.801-0.764-1.483-2.393-3.167-6.152-5.208-10.379-5.208z">
      </path>
      <path fill="currentcolor" d="M16 16c3.314 0 6-2.686 6-6s-2.686-6-6-6c-3.314 0-6 2.686-6 6s2.686 6 6 6z">
      </path>
    </symbol>

    <symbol id="icon-close" viewBox="0 0 32 32">
      <path fill="currentcolor" stroke-linejoin="miter" stroke-linecap="butt" stroke-miterlimit="4"
        stroke-width="1.7778" d="M1.778 1.778l28.444 28.444"></path>
      <path fill="currentcolor" stroke-linejoin="miter" stroke-linecap="butt" stroke-miterlimit="4"
        stroke-width="1.7778" d="M1.778 30.222l28.444-28.444"></path>
    </symbol>

    <symbol id="icon-date" viewBox="0 0 32 32">
      <path fill="currentcolor"
        d="M12 14.667h-2.667v2.667h2.667v-2.667zM17.333 14.667h-2.667v2.667h2.667v-2.667zM22.667 14.667h-2.667v2.667h2.667v-2.667zM25.333 5.333h-1.333v-2.667h-2.667v2.667h-10.667v-2.667h-2.667v2.667h-1.333c-1.48 0-2.653 1.2-2.653 2.667l-0.013 18.667c0 1.467 1.187 2.667 2.667 2.667h18.667c1.467 0 2.667-1.2 2.667-2.667v-18.667c0-1.467-1.2-2.667-2.667-2.667zM25.333 26.667h-18.667v-14.667h18.667v14.667z">
      </path>
    </symbol>
  </defs>
</svg>